<?xml version="1.0" encoding="UTF-8"?>
<svg width="862px" height="143px" viewBox="0 0 862 143" version="1.1" xmlns="http://www.w3.org/2000/svg" xmlns:xlink="http://www.w3.org/1999/xlink">
    <!-- Generator: Sketch 52.5 (67469) - http://www.bohemiancoding.com/sketch -->
    <title>Group 24</title>
    <desc>Created with Sketch.</desc>
    <g id="Features-Page" stroke="none" stroke-width="1" fill="none" fill-rule="evenodd">
        <g id="Features-Page-Copy-9" transform="translate(-82.000000, -3519.000000)">
            <g id="Group-26-Copy-2" transform="translate(78.000000, 3413.000000)">
                <g id="Group-24" transform="translate(0.000000, 106.000000)">
                    <g id="Group-17">
                        <g id="iconfinder_logo_brand_brands_logos_safari_1907163" transform="translate(4.000000, 0.000000)" stroke-linecap="round" stroke-linejoin="round">
                            <circle id="_Path_" stroke="#333333" cx="50" cy="50" r="49.2294521"></circle>
                            <polygon id="_Path_2" stroke="#333333" points="21.2328767 78.7671233 45.4623288 45.4623288 54.5376712 54.5376712"></polygon>
                            <polygon id="_Path_3" stroke="#EE3E36" points="78.7671233 21.2328767 45.4623288 45.4623288 54.5376712 54.5376712"></polygon>
                        </g>
                        <text id="Web" font-family="HelveticaNeue, Helvetica Neue" font-size="22" font-weight="normal" fill="#333333">
                            <tspan x="27.384" y="142">Web</tspan>
                        </text>
                    </g>
                    <g id="Group-20" transform="translate(510.000000, 0.000000)">
                        <g id="Group-16" transform="translate(8.000000, 0.000000)">
                            <g id="iconfinder_36-web_essential_3401854" transform="translate(0.000000, 0.000000)" stroke-linecap="round" stroke-linejoin="round">
                                <rect id="Rectangle" stroke="#333333" x="0.185265911" y="1.01351351" width="52.4901918" height="98.9646905" rx="5.09"></rect>
                                <path d="M0.185265911,12.6689189 L52.6918047,12.6689189" id="Path" stroke="#333333"></path>
                                <path d="M0.185265911,87.3256321 L52.6918047,87.3256321" id="Path" stroke="#333333"></path>
                                <path d="M22.891238,92.8999564 L29.18483,92.8999564" id="Path" stroke="#EE3E36"></path>
                            </g>
                            <g id="iconfinder_5315_-_Apple_1218776" transform="translate(1.000000, 22.000000)">
                                <g id="Layer_x0020_1" transform="translate(7.142857, 0.000000)" fill="#212121" fill-rule="nonzero">
                                    <path d="M26.4246429,25.4822143 C26.3858634,21.5811714 29.0721143,19.3829714 30.0471929,18.7064 C29.3371536,17.7711357 28.5088071,17.1271286 27.6914857,16.6841857 C26.2446643,15.9000714 24.8335571,15.7408786 24.1644357,15.7128714 L24.1421073,15.711381 C22.5649144,15.5517074 20.9921073,16.171786 19.7069859,16.6784524 C18.8297359,17.0243189 18.0771787,17.3210281 17.4684287,17.3210281 C16.8015837,17.3210281 16.0279073,17.0139696 15.1594859,16.6693688 C14.105243,16.2510053 12.9003216,15.7728546 11.6920216,15.7947617 L11.6905311,15.7947617 C10.2773954,15.8157122 8.91823114,16.2258081 7.72888828,16.9466474 C6.52868828,17.6740688 5.50130256,18.7180188 4.76522399,19.9982189 C3.42158114,22.3297974 3.13280256,25.1798831 3.48727399,27.9983617 C3.92495685,31.4782831 5.34132399,34.9001617 6.96989542,37.2517189 C7.69390971,38.2989331 8.48670971,39.4099046 9.37146685,40.2387546 C10.2133954,41.0275331 11.1409526,41.5609403 12.1742526,41.5231189 L12.1742526,41.5230626 C13.1333954,41.4848174 13.835024,41.1858862 14.5605026,40.8768312 C15.4716383,40.4886705 16.4175026,40.0857169 17.9310026,40.0857169 C19.3774597,40.0857169 20.2835883,40.4778426 21.1549311,40.8548669 C21.9136454,41.1831569 22.6435169,41.4989612 23.7108097,41.4789105 C24.7956811,41.4587755 25.6914026,40.9568912 26.4867383,40.2131033 C27.313624,39.439789 28.0456526,38.3909176 28.7659597,37.3387747 C30.0927883,35.3998819 30.7939954,33.5113247 31.0411026,32.7750533 C29.9490026,32.245554 26.4656811,30.1969605 26.4246526,25.4822676 L26.4246429,25.4822143 Z M30.7630286,19.1444214 C30.4236021,19.3544329 27.1429214,21.3844357 27.1835857,25.4762571 C27.2264991,30.4091571 31.40915,32.1191714 31.6400286,32.2135429 L31.641519,32.2135429 L31.6515022,32.2176767 L31.97968,32.3535596 L31.8672786,32.689386 C31.8606138,32.709296 31.8681785,32.6881205 31.8584484,32.7193635 C31.7517277,33.0612928 31.0282484,35.3790635 29.3939127,37.7673135 C28.6522913,38.8506064 27.8966984,39.9322706 27.0045699,40.7666135 C26.0808627,41.6304778 25.0259413,42.2136064 23.7227342,42.2378206 C22.4944127,42.2608803 21.6902556,41.9129328 20.8543127,41.5512349 C20.0572127,41.2063249 19.2282413,40.8476071 17.9309984,40.8476071 C16.5682842,40.8476071 15.6971984,41.2186985 14.8581342,41.5761785 C14.0683127,41.9126521 13.3044484,42.2380742 12.2039984,42.2819714 L12.202508,42.2819714 C10.931808,42.3291592 9.82992943,41.7097271 8.85065086,40.7922642 C7.913758,39.9145356 7.09291514,38.7651285 6.34491514,37.6832356 C4.65641514,35.2451571 3.18797229,31.6977214 2.73428657,28.0905928 C2.36111443,25.1235499 2.673038,22.1094928 4.10751514,19.6203071 C4.90830086,18.2275642 6.027508,17.0909499 7.33602943,16.2978642 C8.63858657,15.5084071 10.128858,15.0591428 11.6800937,15.0358856 L11.6800937,15.0358575 C13.0381937,15.0112231 14.3187294,15.5194068 15.4392366,15.9640647 C16.2322366,16.2787439 16.938758,16.5591432 17.4684294,16.5591432 C17.9363709,16.5591432 18.6261366,16.2871804 19.4302151,15.9701668 C20.7882294,15.4347618 22.4496223,14.7798097 24.2063651,14.9545025 C24.9441294,14.9865892 26.4808009,15.1633047 28.0516151,16.0145954 C29.0522866,16.5569182 30.0672794,17.3711168 30.9016437,18.5922382 L31.121638,18.9142575 L30.7930101,19.1264625 C30.7754342,19.1378236 30.7925321,19.1262375 30.7630326,19.1444603 L30.7630286,19.1444214 Z M22.0986714,12.212 C22.7093293,11.4709714 23.2162214,10.5792643 23.5300286,9.61622143 C23.7756414,8.8624 23.9019071,8.06613571 23.8653207,7.26644286 C23.140885,7.35432214 22.3630993,7.61222429 21.6241779,7.9922 C20.7527207,8.44031571 19.9421779,9.05499286 19.341785,9.75828571 L19.3402946,9.75977615 C18.756661,10.4358169 18.211666,11.331319 17.8737017,12.3161333 C17.6252481,13.0400619 17.4903496,13.8086547 17.5377346,14.5670619 C18.2994631,14.5684679 19.063856,14.3665554 19.7739274,14.0278604 C20.6776131,13.5967862 21.4898988,12.9466747 22.0979417,12.2114104 L22.0986729,12.212001 L22.0986714,12.212 Z M24.2532571,9.85131429 C23.9097814,10.90545 23.3540429,11.8824429 22.6842214,12.6950143 L22.6842214,12.6965047 C22.0083779,13.5137404 21.1056214,14.2362976 20.1013214,14.7153762 C19.1795857,15.1550554 18.1692071,15.3918383 17.1637786,15.313464 L16.8560736,15.2894764 L16.8155505,14.9830928 C16.6849262,13.9950142 16.8357699,12.9947642 17.1534584,12.0691142 C17.5231434,10.9919499 18.1219655,10.0090999 18.7645084,9.26436422 L18.7643959,9.26425174 C19.4293287,8.48534459 20.3210316,7.80764459 21.2759816,7.31661602 C22.2341673,6.82389959 23.2632459,6.51580174 24.1998602,6.47763745 L24.5539094,6.46321109 L24.5927171,6.81692324 C24.7061592,7.85140181 24.5681952,8.88475181 24.2532628,9.85131609 L24.2532571,9.85131429 Z" id="Shape"></path>
                                </g>
                                <rect id="Rectangle" x="0" y="0" width="48.7618571" height="48.7618571"></rect>
                            </g>
                        </g>
                        <text id="iPhone" font-family="HelveticaNeue, Helvetica Neue" font-size="22" font-weight="normal" fill="#333333">
                            <tspan x="0.477" y="142">iPhone</tspan>
                        </text>
                    </g>
                    <g id="Group-21" transform="translate(644.000000, 0.000000)">
                        <g id="Group-23">
                            <g id="iconfinder_ipad_107212-2">
                                <g id="iconfinder_ipad_107212" transform="translate(0.702703, 0.000000)">
                                    <path d="M76.9878049,91.7634146 C76.9878049,95.7878049 73.6926829,99.0804878 69.6707317,99.0804878 L8.2,99.0804878 C4.17560976,99.0804878 0.882926829,95.7878049 0.882926829,91.7634146 L0.882926829,8.54146341 C0.882926829,4.51707317 4.17560976,1.22439024 8.2,1.22439024 L69.6731707,1.22439024 C73.695122,1.22439024 76.9902439,4.51707317 76.9902439,8.54146341 L76.9902439,91.7634146 L76.9878049,91.7634146 Z" id="Path" stroke="#333333"></path>
                                    <rect id="Rectangle" stroke="#333333" x="6.26829268" y="10.4439024" width="65.7536585" height="71.7317073"></rect>
                                    <circle id="Oval" stroke="#333333" fill="#FFFFFF" cx="39.2609756" cy="5.75853659" r="1"></circle>
                                    <ellipse id="Oval" stroke="#EE3E36" cx="38.9536585" cy="90.1317073" rx="2.99268293" ry="3.0097561"></ellipse>
                                </g>
                            </g>
                            <g id="iconfinder_5315_-_Apple_1218776-Copy-2" transform="translate(15.000000, 19.000000)">
                                <g id="Layer_x0020_1" transform="translate(7.142857, 0.000000)" fill="#212121" fill-rule="nonzero">
                                    <path d="M26.4246429,25.4822143 C26.3858634,21.5811714 29.0721143,19.3829714 30.0471929,18.7064 C29.3371536,17.7711357 28.5088071,17.1271286 27.6914857,16.6841857 C26.2446643,15.9000714 24.8335571,15.7408786 24.1644357,15.7128714 L24.1421073,15.711381 C22.5649144,15.5517074 20.9921073,16.171786 19.7069859,16.6784524 C18.8297359,17.0243189 18.0771787,17.3210281 17.4684287,17.3210281 C16.8015837,17.3210281 16.0279073,17.0139696 15.1594859,16.6693688 C14.105243,16.2510053 12.9003216,15.7728546 11.6920216,15.7947617 L11.6905311,15.7947617 C10.2773954,15.8157122 8.91823114,16.2258081 7.72888828,16.9466474 C6.52868828,17.6740688 5.50130256,18.7180188 4.76522399,19.9982189 C3.42158114,22.3297974 3.13280256,25.1798831 3.48727399,27.9983617 C3.92495685,31.4782831 5.34132399,34.9001617 6.96989542,37.2517189 C7.69390971,38.2989331 8.48670971,39.4099046 9.37146685,40.2387546 C10.2133954,41.0275331 11.1409526,41.5609403 12.1742526,41.5231189 L12.1742526,41.5230626 C13.1333954,41.4848174 13.835024,41.1858862 14.5605026,40.8768312 C15.4716383,40.4886705 16.4175026,40.0857169 17.9310026,40.0857169 C19.3774597,40.0857169 20.2835883,40.4778426 21.1549311,40.8548669 C21.9136454,41.1831569 22.6435169,41.4989612 23.7108097,41.4789105 C24.7956811,41.4587755 25.6914026,40.9568912 26.4867383,40.2131033 C27.313624,39.439789 28.0456526,38.3909176 28.7659597,37.3387747 C30.0927883,35.3998819 30.7939954,33.5113247 31.0411026,32.7750533 C29.9490026,32.245554 26.4656811,30.1969605 26.4246526,25.4822676 L26.4246429,25.4822143 Z M30.7630286,19.1444214 C30.4236021,19.3544329 27.1429214,21.3844357 27.1835857,25.4762571 C27.2264991,30.4091571 31.40915,32.1191714 31.6400286,32.2135429 L31.641519,32.2135429 L31.6515022,32.2176767 L31.97968,32.3535596 L31.8672786,32.689386 C31.8606138,32.709296 31.8681785,32.6881205 31.8584484,32.7193635 C31.7517277,33.0612928 31.0282484,35.3790635 29.3939127,37.7673135 C28.6522913,38.8506064 27.8966984,39.9322706 27.0045699,40.7666135 C26.0808627,41.6304778 25.0259413,42.2136064 23.7227342,42.2378206 C22.4944127,42.2608803 21.6902556,41.9129328 20.8543127,41.5512349 C20.0572127,41.2063249 19.2282413,40.8476071 17.9309984,40.8476071 C16.5682842,40.8476071 15.6971984,41.2186985 14.8581342,41.5761785 C14.0683127,41.9126521 13.3044484,42.2380742 12.2039984,42.2819714 L12.202508,42.2819714 C10.931808,42.3291592 9.82992943,41.7097271 8.85065086,40.7922642 C7.913758,39.9145356 7.09291514,38.7651285 6.34491514,37.6832356 C4.65641514,35.2451571 3.18797229,31.6977214 2.73428657,28.0905928 C2.36111443,25.1235499 2.673038,22.1094928 4.10751514,19.6203071 C4.90830086,18.2275642 6.027508,17.0909499 7.33602943,16.2978642 C8.63858657,15.5084071 10.128858,15.0591428 11.6800937,15.0358856 L11.6800937,15.0358575 C13.0381937,15.0112231 14.3187294,15.5194068 15.4392366,15.9640647 C16.2322366,16.2787439 16.938758,16.5591432 17.4684294,16.5591432 C17.9363709,16.5591432 18.6261366,16.2871804 19.4302151,15.9701668 C20.7882294,15.4347618 22.4496223,14.7798097 24.2063651,14.9545025 C24.9441294,14.9865892 26.4808009,15.1633047 28.0516151,16.0145954 C29.0522866,16.5569182 30.0672794,17.3711168 30.9016437,18.5922382 L31.121638,18.9142575 L30.7930101,19.1264625 C30.7754342,19.1378236 30.7925321,19.1262375 30.7630326,19.1444603 L30.7630286,19.1444214 Z M22.0986714,12.212 C22.7093293,11.4709714 23.2162214,10.5792643 23.5300286,9.61622143 C23.7756414,8.8624 23.9019071,8.06613571 23.8653207,7.26644286 C23.140885,7.35432214 22.3630993,7.61222429 21.6241779,7.9922 C20.7527207,8.44031571 19.9421779,9.05499286 19.341785,9.75828571 L19.3402946,9.75977615 C18.756661,10.4358169 18.211666,11.331319 17.8737017,12.3161333 C17.6252481,13.0400619 17.4903496,13.8086547 17.5377346,14.5670619 C18.2994631,14.5684679 19.063856,14.3665554 19.7739274,14.0278604 C20.6776131,13.5967862 21.4898988,12.9466747 22.0979417,12.2114104 L22.0986729,12.212001 L22.0986714,12.212 Z M24.2532571,9.85131429 C23.9097814,10.90545 23.3540429,11.8824429 22.6842214,12.6950143 L22.6842214,12.6965047 C22.0083779,13.5137404 21.1056214,14.2362976 20.1013214,14.7153762 C19.1795857,15.1550554 18.1692071,15.3918383 17.1637786,15.313464 L16.8560736,15.2894764 L16.8155505,14.9830928 C16.6849262,13.9950142 16.8357699,12.9947642 17.1534584,12.0691142 C17.5231434,10.9919499 18.1219655,10.0090999 18.7645084,9.26436422 L18.7643959,9.26425174 C19.4293287,8.48534459 20.3210316,7.80764459 21.2759816,7.31661602 C22.2341673,6.82389959 23.2632459,6.51580174 24.1998602,6.47763745 L24.5539094,6.46321109 L24.5927171,6.81692324 C24.7061592,7.85140181 24.5681952,8.88475181 24.2532628,9.85131609 L24.2532571,9.85131429 Z" id="Shape"></path>
                                </g>
                                <rect id="Rectangle" x="0" y="0" width="48.7618571" height="48.7618571"></rect>
                            </g>
                        </g>
                        <text id="iPad" font-family="HelveticaNeue, Helvetica Neue" font-size="22" font-weight="normal" fill="#333333">
                            <tspan x="18.5" y="142">iPad</tspan>
                        </text>
                    </g>
                    <g id="Group-18" transform="translate(169.000000, 0.000000)">
                        <g id="Group-14">
                            <g id="iconfinder_Computer-RAD_2834774">
                                <path d="M27.7418873,93.1172958 C27.4444991,93.1421823 27.1942841,93.3500976 27.1153662,93.6379014 L26.4028873,97.4787465 L26.5156761,97.6142254 L77.4874789,97.6142254 L78.6394085,97.2861831 L77.6009577,97.4787465 L76.8877887,93.6379014 C76.8088726,93.3501021 76.5586646,93.1421879 76.2612817,93.1172958 L27.7418873,93.1172958 Z" id="Path"></path>
                                <path d="M101.890535,61.1940141 L101.890535,8.0724507 C101.8866,4.78258926 99.220622,2.11661081 95.9307606,2.11267606 L8.0724507,2.11267606 C4.78258926,2.11661081 2.11661081,4.78258926 2.11267606,8.0724507 L2.11267606,61.1940141 L101.890535,61.1940141 Z" id="Path"></path>
                                <circle id="Oval" cx="52.0019577" cy="67.6750986" r="1"></circle>
                                <polygon id="Path" points="39.8056338 91.0042254 64.1971831 91.0042254 60.2225352 74.156338 43.7802817 74.156338"></polygon>
                                <path d="M2.11267606,63.3066901 L2.11267606,66.0843944 C2.11662698,69.3741487 4.78269594,72.0399405 8.0724507,72.0435493 L95.9307606,72.0435493 C99.2204879,72.0399405 101.886545,69.3741917 101.890535,66.0844648 L101.890535,63.3066901 L2.11267606,63.3066901 Z M52.0019437,70.007831 C50.7136034,70.007831 49.6691972,68.9634248 49.6691972,67.6750845 C49.6691972,66.3867442 50.7136034,65.342338 52.0019437,65.342338 C53.290284,65.342338 54.3346901,66.3867442 54.3346901,67.6750845 C54.3330606,68.9627492 53.2896084,70.0062014 52.0019437,70.007831 Z" id="Shape"></path>
                                <path d="M95.9307606,0 L8.0724507,0 C3.61632143,0.00521555607 0.00521555607,3.61632143 7.10542736e-15,8.0724507 L7.10542736e-15,66.0843944 C0.00523171454,70.5404166 3.6164281,74.1513357 8.0724507,74.1562254 L41.6092958,74.1562254 L37.6346479,91.0046901 L27.7418873,91.0046901 C26.4266679,91.0317559 25.3048948,91.9646129 25.0384507,93.2528451 L24.3259718,97.0930704 C24.1888845,97.7461561 24.3576741,98.4260871 24.7842744,98.9392401 C25.2108747,99.4523931 25.8485375,99.742535 26.5156761,99.7270423 L77.4874789,99.7270423 C78.1545919,99.7427127 78.792313,99.4527562 79.2190453,98.9397407 C79.6457775,98.4267252 79.81476,97.7468665 79.6778732,97.0937606 L78.9647042,93.2528451 C78.6982613,91.9646179 77.5764958,91.0317624 76.2612817,91.0046901 L66.3679859,91.0046901 L62.393831,74.1561549 L95.9307606,74.1561549 C100.386756,74.1512654 103.997941,70.5403891 104.003211,66.0843944 L104.003211,8.0724507 C103.997996,3.61632143 100.38689,0.00521555607 95.9307606,0 Z M7.19191157,1.11267606 L96.8112997,1.11267606 C100.167105,1.11674401 102.886522,3.87297019 102.890535,7.27419883 L102.890535,62.1940141 L1.11267606,62.1940141 L1.11267606,7.27419883 C1.11668968,3.87297019 3.83610641,1.11674401 7.19191157,1.11267606 Z M77.1702293,92.1172958 C77.4789982,92.1532587 77.7387861,92.4536422 77.8207237,92.8694397 L78.5611981,98.4184925 L79.6394085,98.140287 L78.4433744,98.6142254 L25.5200508,98.6142254 L25.4029437,98.4184925 L26.1427015,92.8694397 C26.224641,92.4536357 26.4844361,92.1532505 26.7932105,92.1172958 L77.1702293,92.1172958 Z M65.1972958,91.0046197 L38.8059155,91.0046197 L43.1061341,74.1561549 L60.8970772,74.1561549 L65.1972958,91.0046197 Z M96.8112997,73.0434789 L7.19191157,73.0434789 C3.83624323,73.0394571 1.11674575,70.0685905 1.11267606,66.4023263 L1.11267606,63.3066901 L102.890535,63.3066901 L102.890535,66.4023263 C102.886466,70.0685905 100.166968,73.0394571 96.8112997,73.0434789 Z" id="Shape" fill="#333333" fill-rule="nonzero"></path>
                                <path d="M52.0019437,65.342338 C50.7136034,65.342338 49.6691972,66.3867442 49.6691972,67.6750845 C49.6691972,68.9634248 50.7136034,70.007831 52.0019437,70.007831 C53.290284,70.007831 54.3346901,68.9634248 54.3346901,67.6750845 C54.3330528,66.387423 53.2896052,65.3439753 52.0019437,65.342338 Z M52.0019437,68.5993803 C51.4914692,68.5993803 51.0776479,68.185559 51.0776479,67.6750845 C51.0776479,67.16461 51.4914692,66.7507887 52.0019437,66.7507887 C52.5124181,66.7507887 52.9262394,67.16461 52.9262394,67.6750845 C52.9256573,68.1853176 52.5121768,68.5987982 52.0019437,68.5993803 Z" id="Shape" fill="#EE3E36" fill-rule="nonzero"></path>
                            </g>
                            <g id="iconfinder_5315_-_Apple_1218776-Copy" transform="translate(27.000000, 7.000000)">
                                <g id="Layer_x0020_1" transform="translate(7.142857, 0.000000)" fill="#212121" fill-rule="nonzero">
                                    <path d="M26.4246429,25.4822143 C26.3858634,21.5811714 29.0721143,19.3829714 30.0471929,18.7064 C29.3371536,17.7711357 28.5088071,17.1271286 27.6914857,16.6841857 C26.2446643,15.9000714 24.8335571,15.7408786 24.1644357,15.7128714 L24.1421073,15.711381 C22.5649144,15.5517074 20.9921073,16.171786 19.7069859,16.6784524 C18.8297359,17.0243189 18.0771787,17.3210281 17.4684287,17.3210281 C16.8015837,17.3210281 16.0279073,17.0139696 15.1594859,16.6693688 C14.105243,16.2510053 12.9003216,15.7728546 11.6920216,15.7947617 L11.6905311,15.7947617 C10.2773954,15.8157122 8.91823114,16.2258081 7.72888828,16.9466474 C6.52868828,17.6740688 5.50130256,18.7180188 4.76522399,19.9982189 C3.42158114,22.3297974 3.13280256,25.1798831 3.48727399,27.9983617 C3.92495685,31.4782831 5.34132399,34.9001617 6.96989542,37.2517189 C7.69390971,38.2989331 8.48670971,39.4099046 9.37146685,40.2387546 C10.2133954,41.0275331 11.1409526,41.5609403 12.1742526,41.5231189 L12.1742526,41.5230626 C13.1333954,41.4848174 13.835024,41.1858862 14.5605026,40.8768312 C15.4716383,40.4886705 16.4175026,40.0857169 17.9310026,40.0857169 C19.3774597,40.0857169 20.2835883,40.4778426 21.1549311,40.8548669 C21.9136454,41.1831569 22.6435169,41.4989612 23.7108097,41.4789105 C24.7956811,41.4587755 25.6914026,40.9568912 26.4867383,40.2131033 C27.313624,39.439789 28.0456526,38.3909176 28.7659597,37.3387747 C30.0927883,35.3998819 30.7939954,33.5113247 31.0411026,32.7750533 C29.9490026,32.245554 26.4656811,30.1969605 26.4246526,25.4822676 L26.4246429,25.4822143 Z M30.7630286,19.1444214 C30.4236021,19.3544329 27.1429214,21.3844357 27.1835857,25.4762571 C27.2264991,30.4091571 31.40915,32.1191714 31.6400286,32.2135429 L31.641519,32.2135429 L31.6515022,32.2176767 L31.97968,32.3535596 L31.8672786,32.689386 C31.8606138,32.709296 31.8681785,32.6881205 31.8584484,32.7193635 C31.7517277,33.0612928 31.0282484,35.3790635 29.3939127,37.7673135 C28.6522913,38.8506064 27.8966984,39.9322706 27.0045699,40.7666135 C26.0808627,41.6304778 25.0259413,42.2136064 23.7227342,42.2378206 C22.4944127,42.2608803 21.6902556,41.9129328 20.8543127,41.5512349 C20.0572127,41.2063249 19.2282413,40.8476071 17.9309984,40.8476071 C16.5682842,40.8476071 15.6971984,41.2186985 14.8581342,41.5761785 C14.0683127,41.9126521 13.3044484,42.2380742 12.2039984,42.2819714 L12.202508,42.2819714 C10.931808,42.3291592 9.82992943,41.7097271 8.85065086,40.7922642 C7.913758,39.9145356 7.09291514,38.7651285 6.34491514,37.6832356 C4.65641514,35.2451571 3.18797229,31.6977214 2.73428657,28.0905928 C2.36111443,25.1235499 2.673038,22.1094928 4.10751514,19.6203071 C4.90830086,18.2275642 6.027508,17.0909499 7.33602943,16.2978642 C8.63858657,15.5084071 10.128858,15.0591428 11.6800937,15.0358856 L11.6800937,15.0358575 C13.0381937,15.0112231 14.3187294,15.5194068 15.4392366,15.9640647 C16.2322366,16.2787439 16.938758,16.5591432 17.4684294,16.5591432 C17.9363709,16.5591432 18.6261366,16.2871804 19.4302151,15.9701668 C20.7882294,15.4347618 22.4496223,14.7798097 24.2063651,14.9545025 C24.9441294,14.9865892 26.4808009,15.1633047 28.0516151,16.0145954 C29.0522866,16.5569182 30.0672794,17.3711168 30.9016437,18.5922382 L31.121638,18.9142575 L30.7930101,19.1264625 C30.7754342,19.1378236 30.7925321,19.1262375 30.7630326,19.1444603 L30.7630286,19.1444214 Z M22.0986714,12.212 C22.7093293,11.4709714 23.2162214,10.5792643 23.5300286,9.61622143 C23.7756414,8.8624 23.9019071,8.06613571 23.8653207,7.26644286 C23.140885,7.35432214 22.3630993,7.61222429 21.6241779,7.9922 C20.7527207,8.44031571 19.9421779,9.05499286 19.341785,9.75828571 L19.3402946,9.75977615 C18.756661,10.4358169 18.211666,11.331319 17.8737017,12.3161333 C17.6252481,13.0400619 17.4903496,13.8086547 17.5377346,14.5670619 C18.2994631,14.5684679 19.063856,14.3665554 19.7739274,14.0278604 C20.6776131,13.5967862 21.4898988,12.9466747 22.0979417,12.2114104 L22.0986729,12.212001 L22.0986714,12.212 Z M24.2532571,9.85131429 C23.9097814,10.90545 23.3540429,11.8824429 22.6842214,12.6950143 L22.6842214,12.6965047 C22.0083779,13.5137404 21.1056214,14.2362976 20.1013214,14.7153762 C19.1795857,15.1550554 18.1692071,15.3918383 17.1637786,15.313464 L16.8560736,15.2894764 L16.8155505,14.9830928 C16.6849262,13.9950142 16.8357699,12.9947642 17.1534584,12.0691142 C17.5231434,10.9919499 18.1219655,10.0090999 18.7645084,9.26436422 L18.7643959,9.26425174 C19.4293287,8.48534459 20.3210316,7.80764459 21.2759816,7.31661602 C22.2341673,6.82389959 23.2632459,6.51580174 24.1998602,6.47763745 L24.5539094,6.46321109 L24.5927171,6.81692324 C24.7061592,7.85140181 24.5681952,8.88475181 24.2532628,9.85131609 L24.2532571,9.85131429 Z" id="Shape"></path>
                                </g>
                                <rect id="Rectangle" x="0" y="0" width="48.7618571" height="48.7618571"></rect>
                            </g>
                        </g>
                        <text id="Mac" font-family="HelveticaNeue, Helvetica Neue" font-size="22" font-weight="normal" fill="#333333">
                            <tspan x="31.105" y="142">Mac</tspan>
                        </text>
                    </g>
                    <g id="Group-19" transform="translate(339.000000, 0.000000)">
                        <g id="Group-13">
                            <g id="iconfinder_Computer-RAD_2834774-Copy">
                                <path d="M27.7418873,93.1172958 C27.4444991,93.1421823 27.1942841,93.3500976 27.1153662,93.6379014 L26.4028873,97.4787465 L26.5156761,97.6142254 L77.4874789,97.6142254 L78.6394085,97.2861831 L77.6009577,97.4787465 L76.8877887,93.6379014 C76.8088726,93.3501021 76.5586646,93.1421879 76.2612817,93.1172958 L27.7418873,93.1172958 Z" id="Path"></path>
                                <path d="M101.890535,61.1940141 L101.890535,8.0724507 C101.8866,4.78258926 99.220622,2.11661081 95.9307606,2.11267606 L8.0724507,2.11267606 C4.78258926,2.11661081 2.11661081,4.78258926 2.11267606,8.0724507 L2.11267606,61.1940141 L101.890535,61.1940141 Z" id="Path"></path>
                                <circle id="Oval" cx="52.0019577" cy="67.6750986" r="1"></circle>
                                <polygon id="Path" points="39.8056338 91.0042254 64.1971831 91.0042254 60.2225352 74.156338 43.7802817 74.156338"></polygon>
                                <path d="M2.11267606,63.3066901 L2.11267606,66.0843944 C2.11662698,69.3741487 4.78269594,72.0399405 8.0724507,72.0435493 L95.9307606,72.0435493 C99.2204879,72.0399405 101.886545,69.3741917 101.890535,66.0844648 L101.890535,63.3066901 L2.11267606,63.3066901 Z M52.0019437,70.007831 C50.7136034,70.007831 49.6691972,68.9634248 49.6691972,67.6750845 C49.6691972,66.3867442 50.7136034,65.342338 52.0019437,65.342338 C53.290284,65.342338 54.3346901,66.3867442 54.3346901,67.6750845 C54.3330606,68.9627492 53.2896084,70.0062014 52.0019437,70.007831 Z" id="Shape"></path>
                                <path d="M95.9307606,0 L8.0724507,0 C3.61632143,0.00521555607 0.00521555607,3.61632143 7.10542736e-15,8.0724507 L7.10542736e-15,66.0843944 C0.00523171454,70.5404166 3.6164281,74.1513357 8.0724507,74.1562254 L41.6092958,74.1562254 L37.6346479,91.0046901 L27.7418873,91.0046901 C26.4266679,91.0317559 25.3048948,91.9646129 25.0384507,93.2528451 L24.3259718,97.0930704 C24.1888845,97.7461561 24.3576741,98.4260871 24.7842744,98.9392401 C25.2108747,99.4523931 25.8485375,99.742535 26.5156761,99.7270423 L77.4874789,99.7270423 C78.1545919,99.7427127 78.792313,99.4527562 79.2190453,98.9397407 C79.6457775,98.4267252 79.81476,97.7468665 79.6778732,97.0937606 L78.9647042,93.2528451 C78.6982613,91.9646179 77.5764958,91.0317624 76.2612817,91.0046901 L66.3679859,91.0046901 L62.393831,74.1561549 L95.9307606,74.1561549 C100.386756,74.1512654 103.997941,70.5403891 104.003211,66.0843944 L104.003211,8.0724507 C103.997996,3.61632143 100.38689,0.00521555607 95.9307606,0 Z M7.19191157,1.11267606 L96.8112997,1.11267606 C100.167105,1.11674401 102.886522,3.87297019 102.890535,7.27419883 L102.890535,62.1940141 L1.11267606,62.1940141 L1.11267606,7.27419883 C1.11668968,3.87297019 3.83610641,1.11674401 7.19191157,1.11267606 Z M77.1702293,92.1172958 C77.4789982,92.1532587 77.7387861,92.4536422 77.8207237,92.8694397 L78.5611981,98.4184925 L79.6394085,98.140287 L78.4433744,98.6142254 L25.5200508,98.6142254 L25.4029437,98.4184925 L26.1427015,92.8694397 C26.224641,92.4536357 26.4844361,92.1532505 26.7932105,92.1172958 L77.1702293,92.1172958 Z M65.1972958,91.0046197 L38.8059155,91.0046197 L43.1061341,74.1561549 L60.8970772,74.1561549 L65.1972958,91.0046197 Z M96.8112997,73.0434789 L7.19191157,73.0434789 C3.83624323,73.0394571 1.11674575,70.0685905 1.11267606,66.4023263 L1.11267606,63.3066901 L102.890535,63.3066901 L102.890535,66.4023263 C102.886466,70.0685905 100.166968,73.0394571 96.8112997,73.0434789 Z" id="Shape" fill="#333333" fill-rule="nonzero"></path>
                                <path d="M52.0019437,65.342338 C50.7136034,65.342338 49.6691972,66.3867442 49.6691972,67.6750845 C49.6691972,68.9634248 50.7136034,70.007831 52.0019437,70.007831 C53.290284,70.007831 54.3346901,68.9634248 54.3346901,67.6750845 C54.3330528,66.387423 53.2896052,65.3439753 52.0019437,65.342338 Z M52.0019437,68.5993803 C51.4914692,68.5993803 51.0776479,68.185559 51.0776479,67.6750845 C51.0776479,67.16461 51.4914692,66.7507887 52.0019437,66.7507887 C52.5124181,66.7507887 52.9262394,67.16461 52.9262394,67.6750845 C52.9256573,68.1853176 52.5121768,68.5987982 52.0019437,68.5993803 Z" id="Shape" fill="#EE3E36" fill-rule="nonzero"></path>
                            </g>
                            <g id="iconfinder_5314_-_Windows_1218777" transform="translate(28.000000, 7.000000)">
                                <g id="Layer_x0020_1" fill="#212121" fill-rule="nonzero">
                                    <path d="M6.49052143,23.2125714 L6.47766993,11.8195714 L6.47730435,11.4877943 L6.80655078,11.4430811 L20.8257651,9.53930971 L21.2573172,9.48073264 L21.2573172,9.91579979 L21.2573172,23.2125855 L21.2573172,23.5935469 L20.8763558,23.5935469 L6.86999863,23.5935469 L6.49097721,23.5935469 L6.49052726,23.2125855 L6.49052143,23.2125714 Z M7.23697857,12.1513571 L7.24904271,22.8316429 L20.4953999,22.8316429 L20.4953999,10.3509286 L7.23697129,12.1513786 L7.23697857,12.1513571 Z M23.15905,9.19986429 L41.84655,6.48068571 L42.2810829,6.41746864 L42.2810829,6.8571765 L42.2810829,23.2126051 L42.2810829,23.5935665 L41.9001214,23.5935665 L23.2126214,23.5935665 L22.83166,23.5935665 L22.83166,23.2126051 L22.83166,9.57639079 L22.83166,9.2475665 L23.15905,9.19990057 L23.15905,9.19986429 Z M41.5191214,7.29685 L23.59355,9.90520714 L23.59355,22.8316357 L41.5191214,22.8316357 L41.5191214,7.29685 Z M42.2842214,25.5493143 L42.2795533,41.9048143 L42.2794127,42.3419907 L41.8480012,42.2813046 L23.1605012,39.6522546 L22.8316205,39.6059666 L22.8316205,39.2757645 L22.8316205,25.5493359 L22.8316205,25.1683745 L23.2125819,25.1683745 L41.9047248,25.1683745 L42.2842805,25.1683745 L42.2841961,25.5493359 L42.2842214,25.5493143 Z M41.5207214,41.4676 L41.5251646,25.9302429 L23.5935218,25.9302429 L23.5935218,38.9454571 L41.5206646,41.4675571 L41.5207214,41.4676 Z M20.8257214,39.3545786 L6.81793571,37.4346429 L6.48908286,37.3895641 L6.48905474,37.0581527 L6.48832358,25.5492956 L6.48832358,25.1683341 L6.86779501,25.1683341 L20.8763664,25.1683341 L21.2573279,25.1683341 L21.2573279,25.5492956 L21.2573279,38.9780813 L21.2573279,39.4137113 L20.8257757,39.3545718 L20.8257214,39.3545786 Z M7.24793571,36.7267357 L20.4953643,38.5424571 L20.4953643,25.9302429 L7.24729286,25.9302429 L7.24796777,36.7267429 L7.24793571,36.7267357 Z" id="Shape"></path>
                                </g>
                                <rect id="Rectangle" x="0" y="0" width="48.7618571" height="48.7618571"></rect>
                            </g>
                        </g>
                        <text id="Windows" font-family="HelveticaNeue, Helvetica Neue" font-size="22" font-weight="normal" fill="#333333">
                            <tspan x="7.081" y="142">Windows</tspan>
                        </text>
                    </g>
                    <g id="Group-22" transform="translate(789.000000, 0.000000)">
                        <g id="Group-15" transform="translate(13.000000, 0.000000)">
                            <g id="iconfinder_36-web_essential_3401854-copy" transform="translate(0.036036, 0.000000)" stroke-linecap="round" stroke-linejoin="round">
                                <rect id="Rectangle" stroke="#333333" x="0.185265911" y="1.01351351" width="52.4901918" height="98.9646905" rx="5.09"></rect>
                                <path d="M0.185265911,12.6689189 L52.6918047,12.6689189" id="Path" stroke="#333333"></path>
                                <path d="M0.185265911,87.3256321 L52.6918047,87.3256321" id="Path" stroke="#333333"></path>
                                <path d="M22.891238,92.8999564 L29.18483,92.8999564" id="Path" stroke="#EE3E36"></path>
                            </g>
                            <g id="iconfinder_5316_-_Android_1218775" transform="translate(2.000000, 25.000000)">
                                <g id="Layer_x0020_1" fill="#212121">
                                    <path d="M8.7985,18.5112143 C8.36483857,18.5112143 7.97316429,18.6817429 7.69065714,18.9573614 C7.411045,19.23014 7.23807,19.6074179 7.23807,20.02429 L7.23807,27.6009329 C7.23807,28.0179743 7.411045,28.3952829 7.69062929,28.66809 C7.97316571,28.9437929 8.36481357,29.1143214 8.79850071,29.1143214 C9.23221857,29.1143214 9.623865,28.9437929 9.90637214,28.6681179 C10.1859279,28.3953114 10.3589029,28.0180057 10.3589029,27.6009321 L10.3589029,20.0242893 C10.3589029,19.60736 10.1859836,19.2300821 9.90637214,18.9573036 C9.62389214,18.6817129 9.2323,18.5112121 8.79850071,18.5112121 L8.7985,18.5112143 Z M7.1609,18.412705 C7.58100714,18.0028621 8.16011429,17.7492907 8.7985,17.7492907 C9.43699857,17.7492907 10.0160786,18.0028343 10.4361286,18.4126486 C10.8591879,18.8253879 11.1208307,19.3952986 11.1208307,20.0242914 L11.1208307,27.6009343 C11.1208307,28.2300679 10.8591321,28.7999771 10.4361286,29.21277 C10.01605,29.6226686 9.43691429,29.87624 8.7985,29.87624 C8.16008571,29.87624 7.58095,29.6226686 7.16087143,29.2127414 C6.73784,28.7999743 6.47614143,28.2300343 6.47614143,27.6009271 L6.47614143,20.0242843 C6.47614143,19.3952907 6.73786786,18.8254057 7.16089929,18.4126986 L7.1609,18.412705 Z" id="Shape" fill-rule="nonzero"></path>
                                    <path d="M39.9633571,17.7492857 C40.6017429,17.7492857 41.18085,18.0028571 41.6009571,18.4127 C42.0239886,18.8254107 42.285715,19.3952929 42.285715,20.0242857 L42.2842246,20.0242857 L42.2842527,27.6009286 L42.2857431,27.6009286 C42.2857431,28.2300343 42.0240446,28.7999714 41.6010131,29.2127429 C41.180906,29.62267 40.6017988,29.8762414 39.9633274,29.8762414 C39.3249131,29.8762414 38.7457774,29.62267 38.3257274,29.2127714 C37.902696,28.8000043 37.6410253,28.2300643 37.6410253,27.6009357 L37.6410253,20.0242929 C37.6410253,19.3953279 37.9027238,18.8254429 38.3257553,18.4127071 C38.7458338,18.0028364 39.3249124,17.7492929 39.9633553,17.7492929 L39.9633571,17.7492857 Z M41.0712,18.9573571 C40.7886914,18.6817386 40.3970157,18.51121 39.9633571,18.51121 C39.5296393,18.51121 39.1380214,18.6817386 38.8555143,18.9573571 C38.5759307,19.2301357 38.402955,19.6074136 38.402955,20.0242857 L38.402955,27.6009286 C38.402955,28.0179986 38.5759021,28.3953071 38.8554857,28.6681143 C39.1379657,28.9437614 39.5296421,29.1143179 39.9633286,29.1143179 C40.3970179,29.1143179 40.7887214,28.9437607 41.0712571,28.6680864 C41.3508407,28.39528 41.5238164,28.0179743 41.5238164,27.6009293 L41.5253069,27.6009293 L41.5252787,20.0242864 L41.5237883,20.0242864 C41.5237883,19.6074136 41.3508133,19.2301364 41.0712012,18.9573579 L41.0712,18.9573571 Z" id="Shape" fill-rule="nonzero"></path>
                                    <path d="M13.0181879,18.1645 L13.0182143,31.6226429 C13.0182143,32.10397 13.242455,32.4970786 13.5394457,32.7984571 C14.0320214,33.2982886 14.6813457,33.5482357 14.9103386,33.5482357 L17.7513957,33.5482357 L18.1323571,33.5482357 L18.1323571,33.9291971 L18.1323571,39.69559 C18.1323571,40.1213771 18.3064857,40.50664 18.5878971,40.7852686 C18.86959,41.0641214 19.2601693,41.2366186 19.69279,41.2366186 C20.1254671,41.2366186 20.5161614,41.0640936 20.7978543,40.7852407 C21.0793786,40.506585 21.2535064,40.1213207 21.2535064,39.6955907 L21.2535064,33.9291979 L21.2535064,33.5482364 L21.6344679,33.5482364 L26.9380393,33.5482364 L27.3190007,33.5482364 L27.3190007,33.9291979 L27.3190007,39.6955907 C27.3190007,40.1213779 27.4931293,40.5066407 27.7745407,40.7852693 C28.0561771,41.0640936 28.446785,41.2366193 28.8794336,41.2366193 C29.3120829,41.2366193 29.7026621,41.0641221 29.9842979,40.7852693 C30.2657379,40.50667 30.4398379,40.1213771 30.4398379,39.6955907 L30.4398379,33.9291979 L30.4398379,33.5482364 L30.8207993,33.5482364 L33.8515636,33.5482364 C34.0805571,33.5482364 34.729885,33.2982929 35.2224564,32.7984579 C35.5194471,32.49708 35.7436879,32.10397 35.7436879,31.6226436 L35.7436879,18.1645 L13.0181879,18.1645 Z M12.2562929,31.6226429 L12.2562929,17.7835714 L12.2562929,17.40261 L12.6372543,17.40261 L36.1246829,17.40261 L36.5056443,17.40261 L36.5056443,17.7835714 L36.5056443,31.6226429 C36.5056443,32.3340321 36.1866621,32.90245 35.7641657,33.3311929 C35.1210271,33.9838079 34.1950157,34.3101571 33.8515943,34.3101571 L31.2017943,34.3101571 L31.2017943,39.6955929 C31.2017943,40.331195 30.9412486,40.9070071 30.520045,41.3239643 C30.0990943,41.740725 29.518945,41.9985421 28.8794664,41.9985421 C28.2399836,41.9985421 27.6598093,41.7406964 27.2388593,41.3239643 C26.8176836,40.9069786 26.55711,40.3311929 26.55711,39.6955929 L26.55711,34.3101571 L22.01546,34.3101571 L22.01546,39.6955929 C22.01546,40.331195 21.7548579,40.9069571 21.3335986,41.3239429 C20.9125921,41.7407036 20.3323057,41.9985493 19.69282,41.9985493 C19.0533936,41.9985493 18.47322,41.7407314 18.0522129,41.3239714 C17.6310371,40.9069857 17.3704636,40.3312 17.3704636,39.6956 L17.3704636,34.3101643 L14.9103707,34.3101643 C14.5669514,34.3101643 13.6409421,33.9838143 12.9977993,33.3312 C12.5753021,32.90246 12.2563207,32.3340429 12.2563207,31.62265 L12.2562929,31.6226429 Z" id="Shape" fill-rule="nonzero"></path>
                                    <path d="M19.3615,10.9304286 C19.8851786,10.9304286 20.3592214,11.1426893 20.7023857,11.4858557 C21.0455521,11.8290221 21.2578414,12.3032057 21.2578414,12.8267414 C21.2578414,13.350335 21.0455521,13.8244629 20.7023857,14.1676271 C20.3592757,14.5107371 19.8851786,14.7230264 19.3615,14.7230264 C18.8379343,14.7230264 18.3638929,14.5107093 18.0208357,14.1675707 C17.6777257,13.8243764 17.4654643,13.3502779 17.4654643,12.826735 C17.4654643,12.303085 17.6776693,11.828985 18.0207793,11.4858207 C18.3638614,11.1426543 18.8379364,10.9304214 19.3615007,10.9304214 L19.3615,10.9304286 Z M20.1636929,12.02455 C19.9584621,11.8193193 19.6748571,11.6923507 19.3615,11.6923507 C19.048255,11.6923507 18.7646493,11.8192914 18.5594786,12.0245214 C18.3543043,12.2297521 18.2273921,12.5133571 18.2273921,12.8267429 C18.2273921,13.1400164 18.3543329,13.4236493 18.559535,13.6288786 C18.7647371,13.8341093 19.0483143,13.9611057 19.3615064,13.9611057 C19.6748643,13.9611057 19.9584971,13.8341371 20.1636993,13.628935 C20.3689579,13.4236764 20.4959264,13.140015 20.4959264,12.8267421 C20.4959264,12.5134686 20.3689579,12.2298071 20.1636993,12.0245493 L20.1636929,12.02455 Z" id="Shape" fill-rule="nonzero"></path>
                                    <path d="M29.2110714,10.9304286 C29.7346093,10.9304286 30.2087071,11.1427457 30.5518786,11.4859121 C30.895045,11.8290786 31.1073621,12.303205 31.1073621,12.8267479 C31.1073621,13.3502857 30.895045,13.8244121 30.5518786,14.167555 C30.20874,14.5107214 29.7346714,14.7230386 29.2110714,14.7230386 L29.2110714,14.7215481 C28.6865779,14.72152 28.2125071,14.5097653 27.8702143,14.1675267 C27.5270479,13.8243881 27.3147307,13.350291 27.3147307,12.8267481 C27.3147307,12.3030981 27.5270479,11.8290553 27.8701579,11.485891 C28.2133807,11.1426967 28.6875364,10.9304353 29.2110721,10.9304353 L29.2110714,10.9304286 Z M30.0131786,12.0246071 C29.80792,11.8193486 29.5242864,11.6923521 29.2110714,11.6923521 C28.8977979,11.6923521 28.6141086,11.8193207 28.40885,12.0245793 C28.2036479,12.22981 28.0766507,12.5134429 28.0766507,12.8267436 C28.0766507,13.1399607 28.2036471,13.4235943 28.4089057,13.6288221 C28.6151207,13.8350086 28.8988664,13.9625957 29.21107,13.9625957 L29.21107,13.9611053 C29.524315,13.9611053 29.8079486,13.8341088 30.0131771,13.6288503 C30.2184357,13.4236196 30.3454321,13.1399867 30.3454321,12.8267431 C30.3454321,12.513526 30.2184357,12.2298646 30.0131771,12.0246074 L30.0131786,12.0246071 Z" id="Shape" fill-rule="nonzero"></path>
                                    <path d="M35.7436429,17.3725714 C35.7436429,16.2296857 35.5196271,15.1336214 35.1079286,14.1157643 C34.6821414,13.06315 34.0564929,12.0926786 33.27095,11.2389071 L32.1744071,10.2062857 C31.1408571,9.36171429 29.9254786,8.68305714 28.5845571,8.21984286 C27.2872286,7.77164286 25.8690929,7.52524214 24.3808429,7.52524214 C22.8469571,7.52524214 21.3846643,7.78862786 20.05025,8.26607786 C18.6670071,8.76101571 17.4209214,9.48624214 16.3748857,10.3866064 L16.374717,10.3864377 L15.3745456,11.3679091 C14.6242956,12.2115806 14.0278384,13.1649877 13.6223241,14.1958306 C13.2307606,15.1912734 13.018162,16.2599163 13.018162,17.3725734 L12.2562406,17.3725734 C12.2562406,16.1646448 12.4877084,15.002802 12.914002,13.9190591 C13.3543284,12.7996306 14.0037091,11.7641663 14.821452,10.8480234 L14.8378187,10.8301663 L15.8600044,9.82707341 L15.8778616,9.80921627 C16.9935258,8.84889484 18.3213901,8.0758377 19.794283,7.54880913 C21.2091616,7.04256627 22.7579758,6.76331627 24.3808401,6.76331627 C25.9489473,6.76331627 27.450833,7.02554913 28.8315687,7.50257341 C30.2657901,7.99804556 31.5659901,8.72563056 32.6711901,9.63195913 L32.6905377,9.64832584 L33.7921948,10.685783 L33.810052,10.7051306 C34.6676163,11.6325234 35.3500377,12.6878948 35.8132591,13.8330306 C36.2615998,14.9414663 36.5055541,16.1328091 36.5055541,17.3725734 L35.7436327,17.3725663 L35.7436429,17.3725714 Z" id="Path"></path>
                                    <path d="M35.9472143,8.01442857 C36.0959486,7.86569429 36.0959486,7.62446786 35.9472143,7.47573357 C35.79848,7.32699929 35.5572536,7.32699929 35.4085193,7.47573357 L32.8422907,10.0419621 C32.6935564,10.1906964 32.6935564,10.4319229 32.8422907,10.5806571 C32.991025,10.7293914 33.2322514,10.7293914 33.3809857,10.5806571 L35.9472143,8.01442857 Z" id="Path"></path>
                                    <path d="M13.2112143,7.47571429 C13.06248,7.32698 12.8212536,7.32698 12.6725193,7.47571429 C12.523785,7.62444857 12.523785,7.865675 12.6725193,8.01440929 L15.2387479,10.5806379 C15.3874821,10.7293721 15.6287086,10.7293721 15.7774429,10.5806379 C15.9261771,10.4319036 15.9261771,10.1906771 15.7774429,10.0419429 L13.2112143,7.47571429 Z" id="Path"></path>
                                </g>
                                <rect id="Rectangle" x="0" y="0" width="48.7618571" height="48.7618571"></rect>
                            </g>
                        </g>
                        <text id="Android" font-family="HelveticaNeue, Helvetica Neue" font-size="22" font-weight="normal" fill="#333333">
                            <tspan x="0.827036036" y="142">Android</tspan>
                        </text>
                    </g>
                </g>
            </g>
        </g>
    </g>
</svg>